Coordinates
version=1
nRows=13
nColumns=36
inDegrees=yes

Units are S.I. units (second, meters, Newtons, ...)
If the header above contains a line with 'inDegrees', this indicates whether rotational values are in degrees (yes) or radians (no).

endheader
time	pelvis_tilt	pelvis_list	pelvis_rotation	pelvis_tx	pelvis_ty	pelvis_tz	hip_flexion_r	hip_adduction_r	hip_rotation_r	knee_angle_r	knee_angle_r_beta	ankle_angle_r	subtalar_angle_r	mtp_angle_r	hip_flexion_l	hip_adduction_l	hip_rotation_l	knee_angle_l	knee_angle_l_beta	ankle_angle_l	subtalar_angle_l	mtp_angle_l	lumbar_extension	lumbar_bending	lumbar_rotation	arm_flex_r	arm_add_r	arm_rot_r	elbow_flex_r	pro_sup_r	arm_flex_l	arm_add_l	arm_rot_l	elbow_flex_l	pro_sup_l
      1.60000000	    -25.83846621	      0.58780087	      0.85517995	     -0.25680123	      0.62797487	     -0.59371542	     91.08665154	     -6.63215585	      4.48446913	     99.37206856	      1.73436978	     24.71127729	      1.15075501	     -7.34728328	     90.31138379	     -7.99111252	      5.34972496	     93.03832117	      1.62382503	     27.26966841	     -2.10095377	     -7.34728328	    -34.67894443	      8.26757786	      2.24655697	     32.18277640	    -45.47423837	     18.56449040	     69.39355444	    106.36482828	     23.01066801	    -43.99195306	     16.35638081	     57.11143410	    104.06506669
      1.61000000	    -26.78666998	      0.65040928	      0.95275104	     -0.25595927	      0.62791240	     -0.59388710	     91.85830432	     -6.69054379	      4.59479108	     99.10809978	      1.72976266	     24.57234046	      1.14131180	     -7.35277942	     91.02067286	     -7.66205931	      5.38731747	     92.71214221	      1.61813214	     26.76347448	     -2.70392396	     -7.35277942	    -35.08078196	      8.19479555	      2.04573974	     27.16957674	    -45.78627921	     14.70705345	     70.06061097	    105.96533738	     19.02174778	    -43.07890209	     13.31121212	     56.76779185	    103.87196097
      1.62000000	    -27.80141710	      0.58719366	      0.73341770	     -0.25506800	      0.62755165	     -0.59308598	     92.59718961	     -6.26211078	      4.50829533	     98.74603054	      1.72344336	     24.64705293	      0.81652608	     -7.35885263	     91.88533014	     -7.82105184	      5.59917788	     92.53534985	      1.61504653	     26.68675118	     -2.72788023	     -7.35885263	    -35.26220978	      8.04595392	      1.95608094	     22.66611411	    -45.99088394	     12.33909965	     70.25440215	    105.74034495	     14.94980004	    -42.54887190	     11.49403593	     56.29084924	    103.83971898
      1.63000000	    -28.82810570	      0.39760870	      0.12808860	     -0.25408328	      0.62708917	     -0.59121437	     93.20937828	     -5.27607163	      4.24480120	     98.22176682	      1.71429323	     24.78400137	      0.24309605	     -7.36388640	     92.83894439	     -8.58925896	      5.91826327	     92.49517550	      1.61434535	     26.73212839	     -2.36459224	     -7.36388640	    -35.39381016	      7.76193883	      2.13694726	     18.20951952	    -45.93149427	     10.16187673	     70.32270001	    105.71209420	     10.62276948	    -41.93395053	      9.53659229	     55.98173208	    103.75054079
      1.64000000	    -29.83206787	      0.31178971	     -0.49330463	     -0.25328537	      0.62681611	     -0.58957538	     93.78070553	     -4.30473284	      4.12184888	     97.63666168	      1.70408122	     25.20692935	     -0.05010800	     -7.36488136	     93.69110257	     -9.32822213	      6.09276375	     92.37997351	      1.61233470	     26.82442451	     -2.38332488	     -7.36488136	    -35.29745714	      7.41798149	      2.02704905	     14.62520832	    -45.96773544	      9.92369824	     69.66954071	    105.70178727	      6.57952323	    -41.63806577	      9.45179202	     55.02056009	    103.65096508
      1.65000000	    -30.69331317	      0.15502193	     -0.73523638	     -0.25259637	      0.62705972	     -0.58911507	     94.14967593	     -3.88260138	      3.86324762	     97.03599494	      1.69359760	     25.29122649	     -0.80301727	     -7.36942043	     94.35924795	     -9.52246314	      6.37590613	     92.10049797	      1.60745693	     26.81121641	     -2.17836243	     -7.36942043	    -35.66009871	      7.31498363	      1.94996076	      9.54664402	    -45.36063291	      6.22849002	     70.33721005	    105.60505599	      1.78409563	    -40.15457994	      5.92004641	     56.11990259	    103.33392975
      1.66000000	    -31.58772525	      0.15907586	     -1.13748203	     -0.25201858	      0.62725863	     -0.58838627	     94.64089418	     -3.33650020	      3.80627215	     96.44684346	      1.68331497	     25.62029421	     -0.97532536	     -7.37054948	     94.97382701	     -9.95724075	      6.37669983	     91.79106943	      1.60205639	     27.05829737	     -2.28172434	     -7.37054948	    -35.53130019	      7.03566278	      1.58835625	      5.92317165	    -45.16320098	      5.84892937	     69.92737162	    105.56527301	     -2.18351996	    -39.33105438	      5.74999642	     55.67376112	    103.21829475
      1.67000000	    -32.13751039	      0.11579223	     -1.47694975	     -0.25137028	      0.62804242	     -0.58780937	     94.77485751	     -2.95690456	      3.64116002	     95.86302216	      1.67312537	     25.64594207	     -1.20444488	     -7.37476039	     95.23591898	    -10.36021509	      6.38989703	     91.52346771	      1.59738585	     27.26466879	     -2.05252052	     -7.37476039	    -36.14291450	      6.74286072	      1.44406700	      1.01662233	    -44.32896409	      2.15257987	     70.97682232	    105.75383440	     -6.73220821	    -37.64853696	      2.45858786	     57.38037505	    102.72127133
      1.68000000	    -32.73795716	      0.04371565	     -1.58913138	     -0.25099882	      0.62895167	     -0.58772914	     94.97464571	     -2.84895443	      3.40738903	     95.32768752	      1.66378202	     25.78385615	     -1.43807880	     -7.37826860	     95.50224115	    -10.43742623	      6.42598191	     91.06884527	      1.58945120	     27.39381948	     -2.15579603	     -7.37826860	    -36.41717490	      6.65676540	      1.08314290	     -3.20923392	    -43.62446305	      0.13239832	     71.52012985	    106.08974068	    -10.62353129	    -36.31931325	      1.22759355	     58.50922297	    102.36403660
      1.69000000	    -33.24004455	      0.01884196	     -1.59888229	     -0.25068063	      0.63021496	     -0.58803331	     95.04581664	     -2.79955611	      3.29811517	     94.75728365	      1.65382659	     25.91952031	     -1.79241769	     -7.38151973	     95.63967774	    -10.36117187	      6.35999295	     90.59200202	      1.58112871	     27.47468868	     -2.45100350	     -7.38151973	    -36.70535915	      6.64388400	      0.68853491	     -7.17643185	    -42.70826601	     -1.36792287	     72.19922018	    105.99951091	    -14.04097809	    -34.93206199	      0.61979201	     59.67343528	    102.05980995
      1.70000000	    -33.78331391	     -0.09293642	     -1.73062801	     -0.25046736	      0.63122952	     -0.58769482	     95.14949623	     -2.43102061	      3.19053728	     94.17927150	      1.64373837	     25.99982033	     -2.37863912	     -7.38450917	     95.93565309	    -10.54918990	      6.34650651	     90.20108024	      1.57430584	     27.58437512	     -2.54844592	     -7.38450917	    -36.82910770	      6.61096318	      0.54438325	    -11.08131760	    -41.61498618	     -2.64704650	     73.02884071	    105.48628632	    -17.17930315	    -33.52231676	     -0.04663154	     61.05854477	    101.67711380
      1.71000000	    -34.63505608	     -0.25409760	     -2.05732670	     -0.25062199	      0.63140219	     -0.58635464	     95.60382906	     -1.64797454	      3.08426568	     93.57465454	      1.63318582	     26.26448884	     -2.89974218	     -7.38560035	     96.65524262	    -10.99705623	      6.49770718	     89.88626180	      1.56881122	     27.73184159	     -2.59403085	     -7.38560035	    -36.27135981	      6.48346777	      0.41289292	    -14.37903849	    -40.63270737	     -2.90937403	     73.45876997	    105.27983006	    -20.09132569	    -32.25922405	     -0.32445503	     61.92552889	    101.47318002
      1.72000000	    -35.12348711	     -0.63085736	     -2.27023867	     -0.25099179	      0.63226593	     -0.58510129	     95.63738923	     -0.97035409	      2.69768961	     92.93707013	      1.62205787	     25.82770291	     -4.40110976	     -7.38939357	     97.07457112	    -11.24330913	      6.98099743	     89.54753446	      1.56289931	     27.64739537	     -2.57479084	     -7.38939357	    -36.36098321	      6.54477856	      0.63779437	    -18.39255929	    -38.98717749	     -5.53438349	     75.19091940	    104.54684126	    -23.09664810	    -30.40992412	     -2.57746151	     64.51231703	    100.39059611
